P2
3 3
255
3 2 2
3 1 1
0 1 0
